<?xml version="1.0" encoding="UTF-8" standalone="no"?>
<svg version="1.1" xmlns="http://www.w3.org/2000/svg" xmlns:xlink="http://www.w3.org/1999/xlink" xmlns:i="http://ns.adobe.com/AdobeIllustrator/10.0/" width="743.04" height="397.44">
	<g id="dp_dp001" transform="matrix(1,0,0,1,-49.8093,-179.235)">
		<path id="dp_path002" fill="#eb13eb" stroke="black" stroke-width="3.33333" d="M 732.1,236.701 C 716.3,233.301 700.3,236.201 685.8,243.901 C 687.6,223.401 688.4,202.301 688.4,180.901 L 51.5,180.901 C 51.5,398.401 149.1,574.701 370,574.701 C 512.1,574.701 599.8,508.001 646.3,406.001 C 656.6,421.101 671,431.801 688.4,435.601 C 731.4,444.801 776,407.801 788,352.901 C 800.1,298.001 775.1,246.001 732.1,236.701 Z M 739.7,345.601 C 730.9,385.601 700.2,412.901 671.1,406.601 C 663.4,405.001 656.6,401.101 650.9,395.601 C 667.7,355.701 678.4,310.701 684,262.401 C 690.2,260.901 696.6,260.601 702.9,262.001 C 732,268.201 748.5,305.701 739.7,345.601 Z "/>
		<path id="dp_path003" fill="red" stroke="black" stroke-width="2.66667" d="M 376,270.2 C 376,269.8 399.9,244.8 431.6,240.2 C 446.1,238.2 462.3,240.4 478.5,251.3 C 496.9,268.1 503.7,287 502.9,306.5 C 499.7,383.9 376,470.6 376,470.6 C 376,470.6 254.3,386.3 248.2,309.4 C 246.6,290.4 252.2,271.9 268.4,255.2 C 285.5,239.8 304.4,237.6 321.4,240.9 C 351.4,246.9 376,270.2 376,270.2 Z "/>
	</g>
</svg>